<svg xmlns="http://www.w3.org/2000/svg" width="1600" height="900" viewBox="0 0 1600 900"><defs><linearGradient id="sky" x2="0" y2="1"><stop stop-color="#c8d3d4"/><stop offset="1" stop-color="#8e9b99"/></linearGradient><linearGradient id="fire" x2="0" y2="1"><stop stop-color="#ffe09a"/><stop offset=".55" stop-color="#ef8f45"/><stop offset="1" stop-color="#9a3d2b"/></linearGradient></defs><rect width="1600" height="900" fill="url(#sky)"/><rect y="520" width="1600" height="380" fill="#887a67"/><g fill="#d0b995" stroke="#66503e" stroke-width="12"><rect x="60" y="360" width="430" height="310"/><rect x="560" y="330" width="470" height="340"/><rect x="1100" y="365" width="430" height="305"/></g><g fill="#485153"><path d="M15 360 H535 L465 300 H90Z"/><path d="M510 330 H1080 L1000 265 H590Z"/><path d="M1050 365 H1585 L1510 300 H1130Z"/></g><rect x="665" y="450" width="265" height="175" fill="#4c433d"/><rect x="700" y="500" width="195" height="100" fill="#2f2b28"/><path d="M732 598 C730 540 778 505 810 535 C850 493 895 538 875 598Z" fill="url(#fire)"/><rect x="230" y="520" width="150" height="60" rx="12" fill="#4d4843"/><path d="M200 520 H410 L380 485 H235Z" fill="#77706a"/><rect x="290" y="580" width="30" height="115" fill="#4a3b31"/><g stroke="#5c4a3b" stroke-width="12"><line x1="1190" y1="475" x2="1190" y2="690"/><line x1="1285" y1="475" x2="1285" y2="690"/><line x1="1380" y1="475" x2="1380" y2="690"/></g><g stroke="#8e8b84" stroke-width="9"><line x1="1160" y1="500" x2="1220" y2="560"/><line x1="1255" y1="500" x2="1315" y2="560"/><line x1="1350" y1="500" x2="1410" y2="560"/></g><g fill="#5d6364" opacity=".45"><circle cx="780" cy="225" r="54"/><circle cx="825" cy="175" r="46"/><circle cx="855" cy="125" r="36"/><circle cx="330" cy="270" r="32"/><circle cx="1270" cy="280" r="38"/></g><g fill="#d79c53"><circle cx="150" cy="425" r="24"/><circle cx="1040" cy="420" r="24"/></g><path d="M0 780 C330 750 520 820 780 780 T1600 790 V900 H0Z" fill="#6d6255" opacity=".45"/></svg>